<svg id="Layer_1" data-name="Layer 1" xmlns="http://www.w3.org/2000/svg" viewBox="0 0 24 24"><defs><style>.cls-1,.cls-2{fill:#fff;}.cls-2{font-size:7.98px;font-family:Rabar_038;}</style></defs><path class="cls-1" d="M14.59,9.8V8.1a9.2,9.2,0,0,1,1.69-.53,9.51,9.51,0,0,1,1.81-.17,7.59,7.59,0,0,1,1.27.1c.42.07.83.15,1.23.25v1.6A7.83,7.83,0,0,0,19.38,9a7.65,7.65,0,0,0-1.29-.11,6.91,6.91,0,0,0-1.83.24A8.29,8.29,0,0,0,14.59,9.8Zm0,5.5V13.6a9.2,9.2,0,0,1,1.69-.53,9.51,9.51,0,0,1,1.81-.17,7.59,7.59,0,0,1,1.27.1c.42.07.83.15,1.23.25v1.6a7.83,7.83,0,0,0-1.21-.34,7.65,7.65,0,0,0-1.29-.11,7.34,7.34,0,0,0-1.83.22A6.9,6.9,0,0,0,14.59,15.3Zm0-2.75v-1.7a9.2,9.2,0,0,1,1.69-.53,9.51,9.51,0,0,1,1.81-.17,7.59,7.59,0,0,1,1.27.1c.42.07.83.15,1.23.25v1.6a7.83,7.83,0,0,0-1.21-.34,7.65,7.65,0,0,0-1.29-.11,6.91,6.91,0,0,0-1.83.24A8.29,8.29,0,0,0,14.59,12.55ZM7.09,15.9a10.31,10.31,0,0,1,2.29.26,11.5,11.5,0,0,1,2.21.79V7.1a8.65,8.65,0,0,0-2.18-.9,9.12,9.12,0,0,0-2.32-.3,9.78,9.78,0,0,0-1.79.17,9.16,9.16,0,0,0-1.71.53v9.9a11.14,11.14,0,0,1,1.74-.45A10.2,10.2,0,0,1,7.09,15.9Zm6.5,1a11.26,11.26,0,0,1,2.21-.79,10.29,10.29,0,0,1,4.05-.11,11.43,11.43,0,0,1,1.74.45V6.6a9.16,9.16,0,0,0-1.71-.53,9.86,9.86,0,0,0-1.79-.17,9.19,9.19,0,0,0-2.33.3,8.58,8.58,0,0,0-2.17.9ZM12.21,19.9a9.6,9.6,0,0,0-2.6-1.48,8.18,8.18,0,0,0-2.9-.52,8,8,0,0,0-2.06.27A9.84,9.84,0,0,0,2.71,19a1,1,0,0,1-1,0,1,1,0,0,1-.49-.87V6a1.13,1.13,0,0,1,.14-.53.87.87,0,0,1,.41-.37,10.55,10.55,0,0,1,2.4-.9,11,11,0,0,1,2.55-.3,10.6,10.6,0,0,1,5.5,1.5,10.88,10.88,0,0,1,8.05-1.2,10.21,10.21,0,0,1,2.4.9.9.9,0,0,1,.42.37,1.12,1.12,0,0,1,.13.53V18.05a1,1,0,0,1-.48.87,1,1,0,0,1-1,0,9.51,9.51,0,0,0-1.93-.78,8.06,8.06,0,0,0-2.07-.27,8.22,8.22,0,0,0-2.9.52A9.75,9.75,0,0,0,12.21,19.9Z"/><text class="cls-2" transform="translate(4.08 14.1)">12</text></svg>